<svg width="32" height="32" viewBox="0 0 32 32" fill="none" xmlns="http://www.w3.org/2000/svg">
<path d="M15.3412 0.507937C15.3412 0.227411 15.57 0 15.8523 0C16.1346 0 16.3634 0.227411 16.3634 0.507937V2.03175C16.3634 2.31227 16.1346 2.53969 15.8523 2.53969C15.57 2.53969 15.3412 2.31227 15.3412 2.03175V0.507937Z" fill="#6759FF"/>
<path fill-rule="evenodd" clip-rule="evenodd" d="M16.3635 8.18997C17.2453 7.96443 17.8969 7.16894 17.8969 6.22222C17.8969 5.10012 16.9815 4.19047 15.8524 4.19047C14.7233 4.19047 13.808 5.10012 13.808 6.22222C13.808 7.16892 14.4595 7.96439 15.3413 8.18995V9.15392C9.22725 9.41974 4.35254 14.4298 4.35254 20.5714C4.35254 26.8832 9.50127 32 15.8525 32C22.2038 32 27.3525 26.8832 27.3525 20.5714C27.3525 14.4297 22.4777 9.41958 16.3635 9.15391V8.18997ZM21.6022 24.8571C24.1427 24.8571 26.2022 22.8104 26.2022 20.2857C26.2022 17.761 24.1427 15.7143 21.6022 15.7143C19.0616 15.7143 17.0022 17.761 17.0022 20.2857C17.0022 22.8104 19.0616 24.8571 21.6022 24.8571ZM14.7021 20.2857C14.7021 22.8104 12.6426 24.8571 10.1021 24.8571C7.56156 24.8571 5.50207 22.8104 5.50207 20.2857C5.50207 17.761 7.56156 15.7143 10.1021 15.7143C12.6426 15.7143 14.7021 17.761 14.7021 20.2857Z" fill="#6759FF"/>
<path d="M18.7913 1.82093C18.5468 1.68067 18.2342 1.76391 18.0931 2.00685L17.3264 3.32651C17.1853 3.56945 17.269 3.8801 17.5135 4.02036C17.758 4.16063 18.0705 4.07739 18.2117 3.83444L18.9784 2.51479C19.1195 2.27184 19.0357 1.96119 18.7913 1.82093Z" fill="#6759FF"/>
<path d="M13.6117 2.00685C13.4705 1.76391 13.1579 1.68067 12.9135 1.82093C12.669 1.96119 12.5853 2.27184 12.7264 2.51479L13.4931 3.83444C13.6342 4.07739 13.9468 4.16063 14.1913 4.02036C14.4357 3.8801 14.5195 3.56945 14.3783 3.32651L13.6117 2.00685Z" fill="#6759FF"/>
<path d="M21.602 24.8571C24.1425 24.8571 26.202 22.8104 26.202 20.2857C26.202 17.7609 24.1425 15.7142 21.602 15.7142C19.0615 15.7142 17.002 17.7609 17.002 20.2857C17.002 22.8104 19.0615 24.8571 21.602 24.8571Z" fill="#F8FCFC"/>
<path d="M14.702 20.2857C14.702 22.8104 12.6425 24.8571 10.102 24.8571C7.56144 24.8571 5.50195 22.8104 5.50195 20.2857C5.50195 17.7609 7.56144 15.7142 10.102 15.7142C12.6425 15.7142 14.702 17.7609 14.702 20.2857Z" fill="#F8FCFC"/>
</svg>
