<svg id="a42268f9-ed4e-4d76-a279-46c6ae0eb686" data-name="Layer 1" xmlns="http://www.w3.org/2000/svg" width="64" height="64" viewBox="0 0 64 64">
  <g>
    <path d="M63.52,26.1725c-.14-.4-.28-.79-.45-1.18a11.2312,11.2312,0,0,0-1.32-2.21c-.27-.35-.54-.68-.87-1.04l-.45-.45a11.4157,11.4157,0,0,0-1.05-.91L42.26,6.9925a15.3235,15.3235,0,0,0-3.46-2.02c-.51-.21-1.04-.4-1.6-.57a18.0557,18.0557,0,0,0-10.4,0c-.55.16-1.08.36-1.61.57a15.5444,15.5444,0,0,0-3.46,2.02L4.62,20.3825a12.73,12.73,0,0,0-1.02.89c-.11.1-.21.21-.32.32l-.18.18c-.13.15-.27.29-.38.43a11.78,11.78,0,0,0-1.32,1.85c-.01.03-.02.05-.03.08-.17.31-.33.62-.48.96-.07.17-.14.33-.18.45a4.0841,4.0841,0,0,0-.23.63c-.08.28-.16.56-.23.83-.01.03-.01.05-.02.08q-.09.42-.15.84a11.7518,11.7518,0,0,0-.08,1.37v5.74a11.3081,11.3081,0,0,0,4.51,8.55l1.92,1.78a3.83,3.83,0,0,0,2.48,1.02,3.7515,3.7515,0,0,0,1.18,1.56l11.58,9.07a16.6825,16.6825,0,0,0,10.27,3.35,16.6825,16.6825,0,0,0,10.27-3.35l2.5-1.96a3.819,3.819,0,0,0,1.47-3.02v-4.56a2.4069,2.4069,0,0,0-.1-.78,1.727,1.727,0,0,0-.09-.44,3.3115,3.3115,0,0,0-.14-.36,3.9853,3.9853,0,0,0-1.15-1.45l-15.88-12.42,3.18-2.48,20.37,15.93a3.915,3.915,0,0,0,4.71,0l2.3-1.8a11.4064,11.4064,0,0,0,4.62-8.9v-5.48A10.1275,10.1275,0,0,0,63.52,26.1725Zm-21.23,20.85-2.25,1.76a13.1247,13.1247,0,0,1-8.1,2.6,13.1039,13.1039,0,0,1-8.1-2.6l-11.32-8.86,10.16-7.95a.3.3,0,0,1,.37,0Zm14.91-11.57-2.48,1.94-22.35-17.48a.6286.6286,0,0,0-.37-.12.6069.6069,0,0,0-.37.12L9.27,37.3925l-2.48-1.95a7.8651,7.8651,0,0,1-3.28-6.07,7.5787,7.5787,0,0,1,2.51-5.55.01.01,0,0,1,.01-.01c.11-.11.24-.23.35-.34.13-.11.26-.22.41-.33l17.1-13.37a11.8152,11.8152,0,0,1,3.78-1.96,9.3814,9.3814,0,0,1,1.04-.28,14.3993,14.3993,0,0,1,9.6,1.1,10.7172,10.7172,0,0,1,1.79,1.14l17.11,13.37c.14.11.27.22.38.32q.21.18.39.36a7.535,7.535,0,0,1,2.5,5.59A7.8837,7.8837,0,0,1,57.2,35.4525Z" style="fill: #111"/>
    <path d="M42.29,47.0225l-2.25,1.76a13.1247,13.1247,0,0,1-8.1,2.6,13.1039,13.1039,0,0,1-8.1-2.6l-11.32-8.86,10.16-7.95a.3.3,0,0,1,.37,0Z" style="fill: #fff"/>
    <path d="M60.48,29.4125a7.8837,7.8837,0,0,1-3.28,6.04l-2.48,1.94-22.35-17.48a.6286.6286,0,0,0-.37-.12.6069.6069,0,0,0-.37.12L9.27,37.3925l-2.48-1.95a7.8651,7.8651,0,0,1-3.28-6.07,7.5787,7.5787,0,0,1,2.51-5.55.01.01,0,0,1,.01-.01c.11-.11.24-.23.35-.34.13-.11.26-.22.41-.33l17.1-13.37a11.8152,11.8152,0,0,1,3.78-1.96,9.3814,9.3814,0,0,1,1.04-.28,14.3993,14.3993,0,0,1,9.6,1.1,10.7172,10.7172,0,0,1,1.79,1.14l17.11,13.37c.14.11.27.22.38.32q.21.18.39.36A7.535,7.535,0,0,1,60.48,29.4125Z" style="fill: #fff"/>
  </g>
</svg>
